#define c42800205fbe40a09fa29c87668462f8_width 64
#define c42800205fbe40a09fa29c87668462f8_height 64
static char c42800205fbe40a09fa29c87668462f8_bits[] = {
  0x00, 0x00, 0x00, 0x00, 0x00, 0x00, 0x00, 0x00, 0x00, 0x00, 0x00, 0x00, 
  0x00, 0x00, 0x00, 0x00, 0x00, 0x00, 0x00, 0x00, 0x00, 0x00, 0x00, 0x00, 
  0xF8, 0xFF, 0xE1, 0xFF, 0x9F, 0x99, 0xFF, 0x1F, 0xF8, 0xFF, 0xE1, 0xFF, 
  0x9F, 0x99, 0xFF, 0x1F, 0x18, 0x80, 0x19, 0xE0, 0x7F, 0x80, 0x01, 0x18, 
  0x18, 0x80, 0x19, 0xE0, 0x7F, 0x80, 0x01, 0x18, 0x18, 0x9F, 0xE1, 0x79, 
  0xFE, 0x87, 0xF9, 0x19, 0x98, 0x9F, 0xE1, 0x79, 0xFE, 0x87, 0xF9, 0x19, 
  0x98, 0x9F, 0x19, 0x00, 0x18, 0x98, 0xF9, 0x19, 0x98, 0x9F, 0x19, 0x00, 
  0x18, 0x98, 0xF9, 0x19, 0x98, 0x9F, 0xE1, 0xF9, 0x19, 0x98, 0xF9, 0x19, 
  0x98, 0x9F, 0xE1, 0xF9, 0x19, 0x98, 0xF9, 0x19, 0x18, 0x80, 0x79, 0x18, 
  0xF8, 0x87, 0x01, 0x18, 0x18, 0x80, 0x79, 0x18, 0xF8, 0x87, 0x01, 0x18, 
  0xF8, 0xFF, 0x99, 0x99, 0x99, 0x99, 0xFF, 0x1F, 0xF8, 0xFF, 0x99, 0x99, 
  0x99, 0x99, 0xFF, 0x1F, 0x00, 0x00, 0x78, 0x78, 0x98, 0x1F, 0x00, 0x00, 
  0x00, 0x00, 0x78, 0x78, 0x98, 0x1F, 0x00, 0x00, 0x98, 0xE7, 0x9F, 0x01, 
  0xE0, 0xE1, 0x67, 0x06, 0x98, 0xE7, 0x9F, 0x01, 0xE0, 0xE1, 0x67, 0x06, 
  0xF8, 0x19, 0x18, 0x66, 0x60, 0x78, 0x18, 0x18, 0xF8, 0x19, 0x18, 0x66, 
  0x60, 0x78, 0x18, 0x18, 0x80, 0xFF, 0x1F, 0x66, 0xE6, 0xF9, 0x01, 0x1E, 
  0x80, 0xFF, 0x1F, 0x66, 0xE6, 0xF9, 0x01, 0x1E, 0x00, 0x06, 0x80, 0xF9, 
  0x07, 0xE0, 0x87, 0x07, 0x00, 0x06, 0x80, 0xF9, 0x07, 0xE0, 0x87, 0x07, 
  0x80, 0xF9, 0x99, 0x99, 0xE7, 0x9F, 0x1F, 0x1E, 0x80, 0xF9, 0x99, 0x99, 
  0xE7, 0x9F, 0x1F, 0x1E, 0xE0, 0x79, 0x7E, 0x18, 0x98, 0x7F, 0x78, 0x00, 
  0xE0, 0x79, 0x7E, 0x18, 0x98, 0x7F, 0x78, 0x00, 0x98, 0xE1, 0xFF, 0x01, 
  0x9E, 0x99, 0x01, 0x1E, 0x98, 0xE1, 0xFF, 0x01, 0x9E, 0x99, 0x01, 0x1E, 
  0x00, 0x18, 0x00, 0xE0, 0x67, 0x06, 0xE6, 0x19, 0x00, 0x18, 0x00, 0xE0, 
  0x67, 0x06, 0xE6, 0x19, 0x80, 0x9F, 0x61, 0xFE, 0x1F, 0xE6, 0x9F, 0x07, 
  0x80, 0x9F, 0x61, 0xFE, 0x1F, 0xE6, 0x9F, 0x07, 0x80, 0x01, 0x7E, 0x18, 
  0x80, 0x67, 0x80, 0x1F, 0x80, 0x01, 0x7E, 0x18, 0x80, 0x67, 0x80, 0x1F, 
  0x80, 0xFF, 0x99, 0x07, 0x80, 0x81, 0x7F, 0x00, 0x80, 0xFF, 0x99, 0x07, 
  0x80, 0x81, 0x7F, 0x00, 0x18, 0x66, 0x80, 0x7F, 0x1E, 0x66, 0x80, 0x07, 
  0x18, 0x66, 0x80, 0x7F, 0x1E, 0x66, 0x80, 0x07, 0x60, 0x86, 0xE7, 0x61, 
  0x9E, 0xFF, 0x9F, 0x1F, 0x60, 0x86, 0xE7, 0x61, 0x9E, 0xFF, 0x9F, 0x1F, 
  0x00, 0x00, 0x98, 0xFF, 0x19, 0x1E, 0x18, 0x06, 0x00, 0x00, 0x98, 0xFF, 
  0x19, 0x1E, 0x18, 0x06, 0xF8, 0xFF, 0x79, 0x98, 0xE1, 0x99, 0x79, 0x18, 
  0xF8, 0xFF, 0x79, 0x98, 0xE1, 0x99, 0x79, 0x18, 0x18, 0x80, 0x19, 0x9E, 
  0xE1, 0x19, 0xF8, 0x07, 0x18, 0x80, 0x19, 0x9E, 0xE1, 0x19, 0xF8, 0x07, 
  0x98, 0x9F, 0x81, 0x01, 0x06, 0xFE, 0xFF, 0x19, 0x98, 0x9F, 0x81, 0x01, 
  0x06, 0xFE, 0xFF, 0x19, 0x98, 0x9F, 0x79, 0xE0, 0x99, 0x87, 0xF9, 0x1F, 
  0x98, 0x9F, 0x79, 0xE0, 0x99, 0x87, 0xF9, 0x1F, 0x98, 0x9F, 0x19, 0x06, 
  0x00, 0xF8, 0x67, 0x00, 0x98, 0x9F, 0x19, 0x06, 0x00, 0xF8, 0x67, 0x00, 
  0x18, 0x80, 0xE1, 0xE7, 0xFF, 0x7F, 0x00, 0x1E, 0x18, 0x80, 0xE1, 0xE7, 
  0xFF, 0x7F, 0x00, 0x1E, 0xF8, 0xFF, 0x79, 0x80, 0xFF, 0x67, 0xFE, 0x01, 
  0xF8, 0xFF, 0x79, 0x80, 0xFF, 0x67, 0xFE, 0x01, 0x00, 0x00, 0x00, 0x00, 
  0x00, 0x00, 0x00, 0x00, 0x00, 0x00, 0x00, 0x00, 0x00, 0x00, 0x00, 0x00, 
  0x00, 0x00, 0x00, 0x00, 0x00, 0x00, 0x00, 0x00, };
