#define d257b091968f463ab6c813ba10ce2343O6uFbNjFPoUeDAUP_width 64
#define d257b091968f463ab6c813ba10ce2343O6uFbNjFPoUeDAUP_height 64
static char d257b091968f463ab6c813ba10ce2343O6uFbNjFPoUeDAUP_bits[] = {
  0x00, 0x00, 0x00, 0x00, 0x00, 0x00, 0x00, 0x00, 0x00, 0x00, 0x00, 0x00, 
  0x00, 0x00, 0x00, 0x00, 0x00, 0x00, 0x00, 0x00, 0x00, 0x00, 0x00, 0x00, 
  0x00, 0x00, 0x00, 0x00, 0x00, 0x00, 0x00, 0x00, 0xF8, 0xFF, 0x01, 0x06, 
  0xFE, 0x9F, 0xFF, 0x1F, 0xF8, 0xFF, 0x01, 0x06, 0xFE, 0x9F, 0xFF, 0x1F, 
  0x18, 0x80, 0x79, 0xFE, 0xF9, 0x9F, 0x01, 0x18, 0x18, 0x80, 0x79, 0xFE, 
  0xF9, 0x9F, 0x01, 0x18, 0x98, 0x9F, 0xE1, 0xFF, 0x61, 0x9E, 0xF9, 0x19, 
  0x98, 0x9F, 0xE1, 0xFF, 0x61, 0x9E, 0xF9, 0x19, 0x98, 0x9F, 0x79, 0x06, 
  0x80, 0x9F, 0xF9, 0x19, 0x98, 0x9F, 0x79, 0x06, 0x80, 0x9F, 0xF9, 0x19, 
  0x98, 0x9F, 0x79, 0x9E, 0xE1, 0x87, 0xF9, 0x19, 0x98, 0x9F, 0x79, 0x9E, 
  0xE1, 0x87, 0xF9, 0x19, 0x18, 0x80, 0x99, 0x1F, 0xFE, 0x9F, 0x01, 0x18, 
  0x18, 0x80, 0x99, 0x1F, 0xFE, 0x9F, 0x01, 0x18, 0xF8, 0xFF, 0x99, 0x99, 
  0x99, 0x99, 0xFF, 0x1F, 0xF8, 0xFF, 0x99, 0x99, 0x99, 0x99, 0xFF, 0x1F, 
  0x00, 0x00, 0x00, 0x9E, 0x1F, 0x1E, 0x00, 0x00, 0x00, 0x00, 0x00, 0x9E, 
  0x1F, 0x1E, 0x00, 0x00, 0x60, 0x9E, 0x9F, 0x01, 0xF8, 0x79, 0x7E, 0x06, 
  0x60, 0x9E, 0x9F, 0x01, 0xF8, 0x79, 0x7E, 0x06, 0xF8, 0x1F, 0x1E, 0x80, 
  0x79, 0xE0, 0x81, 0x1F, 0xF8, 0x1F, 0x1E, 0x80, 0x79, 0xE0, 0x81, 0x1F, 
  0x18, 0x9E, 0xFF, 0x19, 0x86, 0x99, 0x61, 0x1E, 0x18, 0x9E, 0xFF, 0x19, 
  0x86, 0x99, 0x61, 0x1E, 0x78, 0x78, 0x06, 0x80, 0x87, 0x61, 0x06, 0x06, 
  0x78, 0x78, 0x06, 0x80, 0x87, 0x61, 0x06, 0x06, 0x78, 0xF8, 0x81, 0xE7, 
  0xF9, 0x79, 0xF8, 0x19, 0x78, 0xF8, 0x81, 0xE7, 0xF9, 0x79, 0xF8, 0x19, 
  0x18, 0x1E, 0x78, 0x66, 0x66, 0x66, 0x86, 0x07, 0x18, 0x1E, 0x78, 0x66, 
  0x66, 0x66, 0x86, 0x07, 0x98, 0x81, 0x9F, 0x87, 0x01, 0x78, 0x1E, 0x06, 
  0x98, 0x81, 0x9F, 0x87, 0x01, 0x78, 0x1E, 0x06, 0x78, 0x1E, 0x66, 0x98, 
  0x19, 0xE6, 0x99, 0x19, 0x78, 0x1E, 0x66, 0x98, 0x19, 0xE6, 0x99, 0x19, 
  0x60, 0x9E, 0x99, 0x61, 0x86, 0x87, 0x01, 0x06, 0x60, 0x9E, 0x99, 0x61, 
  0x86, 0x87, 0x01, 0x06, 0x78, 0x06, 0x86, 0x07, 0x78, 0x78, 0x78, 0x00, 
  0x78, 0x06, 0x86, 0x07, 0x78, 0x78, 0x78, 0x00, 0xF8, 0x99, 0xE7, 0xE1, 
  0x99, 0x67, 0x66, 0x06, 0xF8, 0x99, 0xE7, 0xE1, 0x99, 0x67, 0x66, 0x06, 
  0x78, 0x18, 0x7E, 0x80, 0xE1, 0x99, 0x7F, 0x1E, 0x78, 0x18, 0x7E, 0x80, 
  0xE1, 0x99, 0x7F, 0x1E, 0x18, 0xE0, 0x19, 0x00, 0xF8, 0xFF, 0xFF, 0x19, 
  0x18, 0xE0, 0x19, 0x00, 0xF8, 0xFF, 0xFF, 0x19, 0x00, 0x00, 0x18, 0x00, 
  0x86, 0x19, 0xF8, 0x19, 0x00, 0x00, 0x18, 0x00, 0x86, 0x19, 0xF8, 0x19, 
  0xF8, 0xFF, 0x19, 0xFE, 0x87, 0x9F, 0x19, 0x1E, 0xF8, 0xFF, 0x19, 0xFE, 
  0x87, 0x9F, 0x19, 0x1E, 0x18, 0x80, 0xE1, 0x61, 0x1E, 0x1E, 0x18, 0x18, 
  0x18, 0x80, 0xE1, 0x61, 0x1E, 0x1E, 0x18, 0x18, 0x98, 0x9F, 0xF9, 0x67, 
  0x60, 0xF8, 0x9F, 0x1F, 0x98, 0x9F, 0xF9, 0x67, 0x60, 0xF8, 0x9F, 0x1F, 
  0x98, 0x9F, 0x99, 0x1F, 0x66, 0x78, 0x06, 0x00, 0x98, 0x9F, 0x99, 0x1F, 
  0x66, 0x78, 0x06, 0x00, 0x98, 0x9F, 0x61, 0x60, 0x66, 0x9E, 0x01, 0x06, 
  0x98, 0x9F, 0x61, 0x60, 0x66, 0x9E, 0x01, 0x06, 0x18, 0x80, 0x19, 0x18, 
  0x00, 0x9E, 0xFF, 0x01, 0x18, 0x80, 0x19, 0x18, 0x00, 0x9E, 0xFF, 0x01, 
  0xF8, 0xFF, 0x01, 0xE6, 0x99, 0x07, 0x98, 0x07, 0xF8, 0xFF, 0x01, 0xE6, 
  0x99, 0x07, 0x98, 0x07, 0x00, 0x00, 0x00, 0x00, 0x00, 0x00, 0x00, 0x00, 
  0x00, 0x00, 0x00, 0x00, 0x00, 0x00, 0x00, 0x00, };
