#define e36f053705584eb794adeb19faf5955e_width 64
#define e36f053705584eb794adeb19faf5955e_height 64
static char e36f053705584eb794adeb19faf5955e_bits[] = {
  0x00, 0x00, 0x00, 0x00, 0x00, 0x00, 0x00, 0x00, 0x00, 0x00, 0x00, 0x00, 
  0x00, 0x00, 0x00, 0x00, 0x00, 0x00, 0x00, 0x00, 0x00, 0x00, 0x00, 0x00, 
  0xF8, 0xFF, 0x81, 0x79, 0xE0, 0x9F, 0xFF, 0x1F, 0xF8, 0xFF, 0x81, 0x79, 
  0xE0, 0x9F, 0xFF, 0x1F, 0x18, 0x80, 0x99, 0x61, 0xE0, 0x9F, 0x01, 0x18, 
  0x18, 0x80, 0x99, 0x61, 0xE0, 0x9F, 0x01, 0x18, 0x98, 0x9F, 0x61, 0x80, 
  0x9F, 0x99, 0xF9, 0x19, 0x98, 0x9F, 0x61, 0x80, 0x9F, 0x99, 0xF9, 0x19, 
  0x98, 0x9F, 0xF9, 0xE1, 0x1F, 0x9E, 0xF9, 0x19, 0x98, 0x9F, 0xF9, 0xE1, 
  0x1F, 0x9E, 0xF9, 0x19, 0x98, 0x9F, 0x79, 0x78, 0x1E, 0x86, 0xF9, 0x19, 
  0x98, 0x9F, 0x79, 0x78, 0x1E, 0x86, 0xF9, 0x19, 0x18, 0x80, 0x19, 0x86, 
  0xF9, 0x99, 0x01, 0x18, 0x18, 0x80, 0x19, 0x86, 0xF9, 0x99, 0x01, 0x18, 
  0xF8, 0xFF, 0x99, 0x99, 0x99, 0x99, 0xFF, 0x1F, 0xF8, 0xFF, 0x99, 0x99, 
  0x99, 0x99, 0xFF, 0x1F, 0x00, 0x00, 0xE0, 0x01, 0x80, 0x01, 0x00, 0x00, 
  0x00, 0x00, 0xE0, 0x01, 0x80, 0x01, 0x00, 0x00, 0x60, 0x9E, 0x7F, 0x00, 
  0x06, 0x78, 0x7E, 0x06, 0x60, 0x9E, 0x7F, 0x00, 0x06, 0x78, 0x7E, 0x06, 
  0x60, 0x7E, 0x86, 0x07, 0x9E, 0x1F, 0x18, 0x1E, 0x60, 0x7E, 0x86, 0x07, 
  0x9E, 0x1F, 0x18, 0x1E, 0xE0, 0x9F, 0x7F, 0x66, 0x7E, 0xE0, 0xE1, 0x19, 
  0xE0, 0x9F, 0x7F, 0x66, 0x7E, 0xE0, 0xE1, 0x19, 0xF8, 0x01, 0xF8, 0x79, 
  0xE0, 0x61, 0x00, 0x1E, 0xF8, 0x01, 0xF8, 0x79, 0xE0, 0x61, 0x00, 0x1E, 
  0x98, 0x99, 0xFF, 0xF9, 0x61, 0x86, 0x01, 0x18, 0x98, 0x99, 0xFF, 0xF9, 
  0x61, 0x86, 0x01, 0x18, 0x78, 0x60, 0x00, 0xF8, 0xE1, 0x79, 0xE6, 0x1F, 
  0x78, 0x60, 0x00, 0xF8, 0xE1, 0x79, 0xE6, 0x1F, 0x00, 0xFE, 0x9F, 0x81, 
  0x79, 0x00, 0x86, 0x07, 0x00, 0xFE, 0x9F, 0x81, 0x79, 0x00, 0x86, 0x07, 
  0x78, 0x18, 0x00, 0xFE, 0x19, 0xE6, 0x99, 0x19, 0x78, 0x18, 0x00, 0xFE, 
  0x19, 0xE6, 0x99, 0x19, 0xE0, 0x9F, 0x61, 0x60, 0x80, 0x87, 0x01, 0x06, 
  0xE0, 0x9F, 0x61, 0x60, 0x80, 0x87, 0x01, 0x06, 0x78, 0x1E, 0x98, 0x07, 
  0x78, 0x78, 0x78, 0x00, 0x78, 0x1E, 0x98, 0x07, 0x78, 0x78, 0x78, 0x00, 
  0xE0, 0xF9, 0xE7, 0x61, 0xF8, 0x67, 0x66, 0x06, 0xE0, 0xF9, 0xE7, 0x61, 
  0xF8, 0x67, 0x66, 0x06, 0xE0, 0x19, 0x7E, 0x9E, 0xE1, 0x99, 0x7F, 0x1E, 
  0xE0, 0x19, 0x7E, 0x9E, 0xE1, 0x99, 0x7F, 0x1E, 0x80, 0xE1, 0x19, 0x00, 
  0x60, 0xFE, 0xFF, 0x19, 0x80, 0xE1, 0x19, 0x00, 0x60, 0xFE, 0xFF, 0x19, 
  0x00, 0x00, 0x78, 0x80, 0x81, 0x19, 0xF8, 0x07, 0x00, 0x00, 0x78, 0x80, 
  0x81, 0x19, 0xF8, 0x07, 0xF8, 0xFF, 0x19, 0xFE, 0x81, 0x9F, 0x19, 0x06, 
  0xF8, 0xFF, 0x19, 0xFE, 0x81, 0x9F, 0x19, 0x06, 0x18, 0x80, 0xE1, 0x67, 
  0x06, 0x1E, 0x18, 0x18, 0x18, 0x80, 0xE1, 0x67, 0x06, 0x1E, 0x18, 0x18, 
  0x98, 0x9F, 0xF9, 0x67, 0x60, 0xF8, 0x9F, 0x1F, 0x98, 0x9F, 0xF9, 0x67, 
  0x60, 0xF8, 0x9F, 0x1F, 0x98, 0x9F, 0x99, 0x1F, 0x66, 0x78, 0x06, 0x00, 
  0x98, 0x9F, 0x99, 0x1F, 0x66, 0x78, 0x06, 0x00, 0x98, 0x9F, 0x61, 0x60, 
  0x66, 0x9E, 0x01, 0x06, 0x98, 0x9F, 0x61, 0x60, 0x66, 0x9E, 0x01, 0x06, 
  0x18, 0x80, 0x19, 0x18, 0x00, 0x86, 0xFF, 0x01, 0x18, 0x80, 0x19, 0x18, 
  0x00, 0x86, 0xFF, 0x01, 0xF8, 0xFF, 0x01, 0xE6, 0x99, 0x01, 0x98, 0x07, 
  0xF8, 0xFF, 0x01, 0xE6, 0x99, 0x01, 0x98, 0x07, 0x00, 0x00, 0x00, 0x00, 
  0x00, 0x00, 0x00, 0x00, 0x00, 0x00, 0x00, 0x00, 0x00, 0x00, 0x00, 0x00, 
  0x00, 0x00, 0x00, 0x00, 0x00, 0x00, 0x00, 0x00, };
