#define bde143fd523b443fa50c62108246d03dpggHZICX3xbGj096_width 68
#define bde143fd523b443fa50c62108246d03dpggHZICX3xbGj096_height 68
static char bde143fd523b443fa50c62108246d03dpggHZICX3xbGj096_bits[] = {
  0x00, 0x00, 0x00, 0x00, 0x0F, 0x00, 0x00, 0x00, 0x00, 0x00, 0x00, 0x00, 
  0xC0, 0x3F, 0x00, 0x00, 0x00, 0x00, 0x00, 0x00, 0x00, 0xE0, 0x7F, 0x00, 
  0x00, 0x00, 0x00, 0x00, 0x00, 0x00, 0xF0, 0xFF, 0x00, 0x00, 0x00, 0x00, 
  0x00, 0x00, 0x00, 0xF8, 0xF9, 0x01, 0x00, 0x00, 0x00, 0x00, 0x00, 0x00, 
  0xFC, 0xF0, 0x03, 0x00, 0x00, 0x00, 0x00, 0x00, 0x00, 0x7E, 0xE0, 0x07, 
  0x00, 0x00, 0x00, 0x00, 0x00, 0x00, 0x3F, 0xC0, 0x0F, 0x00, 0x00, 0x00, 
  0x00, 0x00, 0x80, 0x1F, 0x80, 0x1F, 0x00, 0x00, 0x00, 0x00, 0x00, 0xC0, 
  0x0F, 0x00, 0x3F, 0x00, 0x00, 0x00, 0x00, 0x00, 0xE0, 0x07, 0x00, 0x7E, 
  0x00, 0x00, 0x00, 0x00, 0x00, 0xF0, 0x03, 0x06, 0xFC, 0x00, 0x00, 0x00, 
  0x00, 0x00, 0xF8, 0x01, 0x06, 0xF8, 0x01, 0x00, 0x00, 0x00, 0x00, 0xFC, 
  0x00, 0x06, 0xF0, 0x03, 0x00, 0x00, 0x00, 0x00, 0x7E, 0x00, 0x06, 0xE0, 
  0x07, 0x00, 0x00, 0x00, 0x00, 0x3F, 0x00, 0x06, 0xC0, 0x0F, 0x00, 0x00, 
  0x00, 0x80, 0x1F, 0x00, 0x06, 0x80, 0x1F, 0x00, 0x00, 0x00, 0xC0, 0x0F, 
  0x00, 0x06, 0x00, 0x3F, 0x00, 0x00, 0x00, 0xE0, 0x07, 0x00, 0x06, 0x00, 
  0x7E, 0x00, 0x00, 0x00, 0xF0, 0x03, 0x00, 0x06, 0x00, 0xFC, 0x00, 0x00, 
  0x00, 0xF8, 0x01, 0x00, 0x06, 0x00, 0xF8, 0x01, 0x00, 0x00, 0xFC, 0x00, 
  0x00, 0x06, 0x00, 0xF0, 0x03, 0x00, 0x00, 0x7E, 0x00, 0x00, 0x06, 0x00, 
  0xE0, 0x07, 0x00, 0x00, 0x3F, 0x00, 0x00, 0x06, 0x00, 0xC0, 0x0F, 0x00, 
  0x80, 0x1F, 0x00, 0x00, 0x00, 0x00, 0x80, 0x1F, 0x00, 0xC0, 0x0F, 0x00, 
  0x00, 0x00, 0x00, 0x00, 0x3F, 0x00, 0xE0, 0x07, 0x00, 0x00, 0x00, 0x00, 
  0x00, 0x7E, 0x00, 0xF0, 0x03, 0x00, 0x00, 0x00, 0x00, 0x00, 0xFC, 0x00, 
  0xF8, 0x01, 0xFF, 0xE7, 0xFF, 0x70, 0x00, 0xF8, 0x01, 0xFC, 0x00, 0xFF, 
  0xE7, 0xFF, 0x71, 0x00, 0xF0, 0x03, 0x7E, 0x00, 0xFF, 0xE7, 0xC0, 0x71, 
  0x00, 0xE0, 0x07, 0x3E, 0x00, 0x70, 0xE0, 0x80, 0x71, 0x00, 0xC0, 0x07, 
  0x1F, 0x00, 0x70, 0xE0, 0xC0, 0x71, 0x00, 0x80, 0x0F, 0x0F, 0x00, 0x70, 
  0xE0, 0xFF, 0x70, 0x00, 0x00, 0x0F, 0x0F, 0x00, 0x70, 0xE0, 0xFF, 0x70, 
  0x00, 0x00, 0x0F, 0x1F, 0x00, 0x70, 0xE0, 0xFF, 0x71, 0x00, 0x80, 0x0F, 
  0x3E, 0x00, 0x70, 0xE0, 0x80, 0x73, 0x00, 0xC0, 0x07, 0x7E, 0x00, 0x70, 
  0xE0, 0x00, 0x73, 0x00, 0xE0, 0x07, 0xFC, 0x00, 0x70, 0xE0, 0x80, 0xF3, 
  0x3F, 0xF0, 0x03, 0xF8, 0x01, 0x70, 0xE0, 0xFF, 0xF1, 0x3F, 0xF8, 0x01, 
  0xF0, 0x03, 0x70, 0xE0, 0xFF, 0xF0, 0x3F, 0xFC, 0x00, 0xE0, 0x07, 0x00, 
  0x00, 0x00, 0x00, 0x00, 0x7E, 0x00, 0xC0, 0x0F, 0x00, 0x00, 0x00, 0x00, 
  0x00, 0x3F, 0x00, 0x80, 0x1F, 0x00, 0x00, 0x00, 0x00, 0x80, 0x1F, 0x00, 
  0x00, 0x3F, 0x00, 0x00, 0x06, 0x00, 0xC0, 0x0F, 0x00, 0x00, 0x7E, 0x00, 
  0x00, 0x06, 0x00, 0xE0, 0x07, 0x00, 0x00, 0xFC, 0x00, 0x00, 0x06, 0x00, 
  0xF0, 0x03, 0x00, 0x00, 0xF8, 0x01, 0x00, 0x06, 0x00, 0xF8, 0x01, 0x00, 
  0x00, 0xF0, 0x03, 0x00, 0x06, 0x00, 0xFC, 0x00, 0x00, 0x00, 0xE0, 0x07, 
  0x00, 0x06, 0x00, 0x7E, 0x00, 0x00, 0x00, 0xC0, 0x0F, 0x00, 0x06, 0x00, 
  0x3F, 0x00, 0x00, 0x00, 0x80, 0x1F, 0x00, 0x06, 0x80, 0x1F, 0x00, 0x00, 
  0x00, 0x00, 0x3F, 0x00, 0x06, 0xC0, 0x0F, 0x00, 0x00, 0x00, 0x00, 0x7E, 
  0x00, 0x06, 0xE0, 0x07, 0x00, 0x00, 0x00, 0x00, 0xFC, 0x00, 0x06, 0xF0, 
  0x03, 0x00, 0x00, 0x00, 0x00, 0xF8, 0x01, 0x06, 0xF8, 0x01, 0x00, 0x00, 
  0x00, 0x00, 0xF0, 0x03, 0x06, 0xFC, 0x00, 0x00, 0x00, 0x00, 0x00, 0xE0, 
  0x07, 0x06, 0x7E, 0x00, 0x00, 0x00, 0x00, 0x00, 0xC0, 0x0F, 0x00, 0x3F, 
  0x00, 0x00, 0x00, 0x00, 0x00, 0x80, 0x1F, 0x80, 0x1F, 0x00, 0x00, 0x00, 
  0x00, 0x00, 0x00, 0x3F, 0xC0, 0x0F, 0x00, 0x00, 0x00, 0x00, 0x00, 0x00, 
  0x7E, 0xE0, 0x07, 0x00, 0x00, 0x00, 0x00, 0x00, 0x00, 0xFC, 0xF0, 0x03, 
  0x00, 0x00, 0x00, 0x00, 0x00, 0x00, 0xF8, 0xF9, 0x01, 0x00, 0x00, 0x00, 
  0x00, 0x00, 0x00, 0xF0, 0xFF, 0x00, 0x00, 0x00, 0x00, 0x00, 0x00, 0x00, 
  0xE0, 0x7F, 0x00, 0x00, 0x00, 0x00, 0x00, 0x00, 0x00, 0xC0, 0x3F, 0x00, 
  0x00, 0x00, 0x00, 0x00, 0x00, 0x00, 0x00, 0x0F, 0x00, 0x00, 0x00, 0x00, 
  };
